General
Complete name                    : C:\Users\anvee\Desktop\eluveitie-inis_mona-dvdrip-x264 by anky\eluveitie-inis_mona-dvdrip-x264 by anky.mkv
Format                           : Matroska
File size                        : 67.9 MiB
Duration                         : 4mn 13s
Overall bit rate                 : 2 243 Kbps
Encoded date                     : UTC 2008-02-23 21:08:48
Writing application              : mkvmerge v2.1.0 ('Another Place To Fall') built on Aug 19 2007 13:40:07
Writing library                  : libebml v0.7.7 + libmatroska v0.8.1

Video
ID                               : 1
Format                           : AVC
Format/Info                      : Advanced Video Codec
Format profile                   : Main@L5.1
Format settings, CABAC           : Yes
Format settings, ReFrames        : 6 frames
Muxing mode                      : Container profile=Unknown@5.1
Codec ID                         : V_MPEG4/ISO/AVC
Duration                         : 4mn 13s
Bit rate                         : 1 973 Kbps
Width                            : 704 pixels
Height                           : 384 pixels
Display aspect ratio             : 16:9
Frame rate                       : 25.000 fps
Resolution                       : 24 bits
Colorimetry                      : 4:2:0
Scan type                        : Progressive
Bits/(Pixel*Frame)               : 0.292
Stream size                      : 59.7 MiB (88%)
Writing library                  : x264 core 57 svn-709C





Audio
ID                               : 2
Format                           : MPEG Audio
Format version                   : Version 1
Format profile                   : Layer 3
Codec ID                         : A_MPEG/L3
Codec ID/Hint                    : MP3
Duration                         : 4mn 13s
Bit rate mode                    : Variable
Bit rate                         : 225 Kbps
Minimum bit rate                 : 32.0 Kbps
Channel(s)                       : 2 channels
Sampling rate                    : 44.1 KHz
Resolution                       : 16 bits
Stream size                      : 6.82 MiB (10%)
Title                            : Eluveitie - Inis Mona
Writing library                  : LAME3.97 
Encoding settings                : -m j -V 2 -q 3 -lowpass 18.6 --vbr-new -b 32
Language                         : English
